<?xml version="1.0" encoding="UTF-8"?>
<svg width="20px" height="20px" viewBox="0 0 20 20" version="1.1" xmlns="http://www.w3.org/2000/svg" xmlns:xlink="http://www.w3.org/1999/xlink">
    <title>复制@1x</title>
    <g id="----------📂耗材采购✨---大审批" stroke="none" stroke-width="1" fill="none" fill-rule="evenodd">
        <g id="耗材采购申请-light" transform="translate(-321.000000, -1725.000000)">
            <g id="表单:20/Button按钮:50/模块按钮L-Copy" transform="translate(0.000000, 1713.000000)">
                <g id="06.底部栏/按钮栏/基础组件/图标按钮" transform="translate(319.000000, 12.000000)">
                    <g id="复制" transform="translate(2.000000, 0.000000)">
                        <rect id="矩形" x="0" y="0" width="20" height="20"></rect>
                        <g id="编组" transform="translate(2.000000, 2.000000)" stroke="#323233" stroke-linejoin="round" stroke-width="1.66666667">
                            <path d="M3.33333333,3.0965 L3.33333333,1.171875 C3.33333333,0.524666667 3.858,0 4.50520833,0 L14.6614583,0 C15.3086667,0 15.8333333,0.524666667 15.8333333,1.171875 L15.8333333,11.328125 C15.8333333,11.9753333 15.3086667,12.5 14.6614583,12.5 L12.715125,12.5" id="路径" stroke-linecap="round"></path>
                            <path d="M11.328125,3.33333333 L1.171875,3.33333333 C0.524666667,3.33333333 0,3.858 0,4.50520833 L0,14.6614583 C0,15.3086667 0.524666667,15.8333333 1.171875,15.8333333 L11.328125,15.8333333 C11.9753333,15.8333333 12.5,15.3086667 12.5,14.6614583 L12.5,4.50520833 C12.5,3.858 11.9753333,3.33333333 11.328125,3.33333333 Z" id="路径"></path>
                        </g>
                    </g>
                </g>
            </g>
        </g>
    </g>
</svg>